Coordinates
version=1
nRows=7
nColumns=42
inDegrees=yes

Units are S.I. units (second, meters, Newtons, ...)
If the header above contains a line with 'inDegrees', this indicates whether rotational values are in degrees (yes) or radians (no).

endheader
time	pelvis_tilt	pelvis_list	pelvis_rotation	pelvis_tx	pelvis_ty	pelvis_tz	hip_flexion_r	hip_adduction_r	hip_rotation_r	knee_angle_r	knee_adduction_r	knee_angle_r_beta	ankle_angle_r	subtalar_angle_r	mtp_angle_r	hip_flexion_l	hip_adduction_l	hip_rotation_l	knee_angle_l	knee_adduction_l	knee_angle_l_beta	ankle_angle_l	subtalar_angle_l	mtp_angle_l	lumbar_extension	lumbar_bending	lumbar_rotation	arm_flex_r	arm_add_r	arm_rot_r	elbow_flex_r	pro_sup_r	wrist_flex_r	wrist_dev_r	arm_flex_l	arm_add_l	arm_rot_l	elbow_flex_l	pro_sup_l	wrist_flex_l	wrist_dev_l
      0.00000000	      2.94401288	     -3.86818870	     -5.33307465	     -1.38215011	      1.00175550	     -0.23521630	    -14.42186029	      3.50134420	      0.68398720	     10.35675097	      8.63427766	      0.18075940	     14.79473395	      7.12025334	     -9.51457633	     21.76071492	    -14.69536393	     -9.98116884	     16.35730340	     11.57996513	      0.28548880	      0.91114806	     -8.47947858	     -9.51457633	    -17.31440605	     -0.26093463	     11.05435841	     17.84043612	    -17.38111109	     -6.61811912	     36.07977733	     90.00000001	      0.00000000	      0.00000000	    -11.80700867	    -11.12682202	    -16.05360736	     13.99830929	     90.00000001	      0.00000000	      0.00000000
      0.01000000	      2.53050401	     -4.20318260	     -5.65717611	     -1.36899327	      0.99863041	     -0.23484588	    -14.71924948	      3.84996705	      0.83726140	     10.65481452	      8.41199179	      0.18596159	     15.17373652	      7.18257204	     -9.48531800	     22.24553324	    -15.23844339	    -10.69029977	     13.79917420	     12.08567723	      0.24084102	      0.53449245	     -6.86020500	     -9.48531800	    -16.90984775	     -0.04947830	     11.43468360	     18.57507151	    -17.72704133	     -6.06996456	     36.66343171	     90.00000001	      0.00000000	      0.00000000	    -12.50051044	    -11.05618036	    -16.11061460	     14.12031418	     90.00000001	      0.00000000	      0.00000000
      0.02000000	      2.67372468	     -4.34013187	     -6.18997562	     -1.35532001	      0.99628501	     -0.23467176	    -15.66820257	      3.74566966	      1.34766619	     10.85087448	      8.38772054	      0.18938349	     15.50010629	      7.26584912	     -9.41834318	     21.88080364	    -15.51912120	    -11.65237104	     11.28930022	     12.51310456	      0.19703546	      0.62874417	     -5.24884265	     -9.41834318	    -17.09951201	     -0.12135999	     11.86257808	     19.26863875	    -18.18919964	     -5.00730583	     37.48205752	     90.00000001	      0.00000000	      0.00000000	    -13.11698735	    -10.89068338	    -16.39717689	     14.13302838	     90.00000001	      0.00000000	      0.00000000
      0.03000000	      2.35215585	     -4.52632015	     -6.52456220	     -1.34163681	      0.99332989	     -0.23426688	    -16.06060725	      3.91283422	      1.61585550	     11.18484500	      8.16094674	      0.19521237	     15.76116266	      7.20609412	     -9.39217240	     22.24865662	    -15.90466320	    -12.29058329	      9.45179521	     13.01120421	      0.16496495	      0.40618917	     -3.90043692	     -9.39217240	    -16.75720551	     -0.09710617	     12.08345425	     19.96082468	    -18.38138249	     -4.42613114	     37.85783858	     90.00000001	      0.00000000	      0.00000000	    -13.74435932	    -10.81689852	    -16.58921724	     14.17409378	     90.00000001	      0.00000000	      0.00000000
      0.04000000	      2.57874434	     -4.48227177	     -7.05260073	     -1.32754878	      0.99128478	     -0.23414727	    -17.11802037	      3.57238611	      2.44712797	     11.29886716	      8.17430820	      0.19720243	     15.77210298	      6.67510944	     -9.23491120	     21.94154854	    -15.96023139	    -13.62426102	      8.15504544	     13.21583110	      0.14233239	      0.91245057	     -1.72674876	     -9.23491120	    -16.98402867	     -0.39153568	     12.35617989	     20.63431449	    -18.65458670	     -3.47173636	     38.32732592	     90.00000001	      0.00000000	      0.00000000	    -14.07458812	    -10.58833112	    -17.87318943	     13.82687645	     90.00000001	      0.00000000	      0.00000000
      0.05000000	      2.43604238	     -4.52919168	     -7.44250398	     -1.31362773	      0.98882564	     -0.23388680	    -17.60095983	      3.50696170	      2.86217273	     11.80152215	      7.95922806	      0.20597542	     15.89344368	      6.59940577	     -9.20757297	     22.10875199	    -16.10436309	    -14.01821903	      7.18685779	     13.46994218	      0.12543433	      0.92874994	     -0.93048743	     -9.20757297	    -16.81631874	     -0.54113960	     12.52816102	     21.21461475	    -18.80617745	     -2.74965509	     38.63067408	     90.00000001	      0.00000000	      0.00000000	    -14.57678296	    -10.48039515	    -18.08563164	     13.83386833	     90.00000001	      0.00000000	      0.00000000
      0.06000000	      2.32530194	     -4.47647808	     -7.60985294	     -1.29949134	      0.98654558	     -0.23379474	    -18.13534143	      3.39095039	      3.14645505	     12.23504998	      7.74135421	      0.21354191	     15.84971721	      6.58415525	     -9.19586946	     22.46387627	    -16.05155592	    -14.17804764	      6.98710086	     13.59079161	      0.12194792	      1.00194812	     -0.72146720	     -9.19586946	    -16.67691106	     -0.77262656	     12.47462053	     21.66280645	    -18.77462983	     -2.49922767	     38.96149369	     90.00000001	      0.00000000	      0.00000000	    -14.96610094	    -10.43782320	    -18.16522312	     13.75765359	     90.00000001	      0.00000000	      0.00000000
